<svg width="200" height="83" viewBox="0 0 200 83" fill="none" xmlns="http://www.w3.org/2000/svg">
<g clip-path="url(#clip0_1_2)">
<path d="M54.984 8.584C55.8 8.968 56.664 9.472 57.576 10.096C58.488 10.672 59.328 11.296 60.096 11.968C60.864 12.592 61.512 13.216 62.04 13.84C62.568 14.416 62.832 14.872 62.832 15.208C62.16 15.064 61.416 14.944 60.6 14.848C59.832 14.752 59.088 14.704 58.368 14.704C55.776 14.704 53.256 15.28 50.808 16.432C48.36 17.536 46.032 19.144 43.824 21.256C41.616 23.368 39.576 25.96 37.704 29.032C35.88 32.056 34.296 35.488 32.952 39.328C31.848 42.544 30.96 45.736 30.288 48.904C29.616 52.024 29.28 54.64 29.28 56.752C29.28 59.44 29.832 60.832 30.936 60.928C31.224 60.928 31.704 60.976 32.376 61.072C33.096 61.216 33.84 61.384 34.608 61.576C35.424 61.768 36.216 61.96 36.984 62.152C37.8 62.392 38.472 62.608 39 62.8C40.824 62.704 42.96 61.864 45.408 60.28C47.856 58.696 50.256 56.584 52.608 53.944C54.672 51.64 56.52 49.12 58.152 46.384C59.832 43.6 61.248 40.696 62.4 37.672C63.552 34.6 64.416 31.456 64.992 28.24C65.616 25.024 65.928 21.832 65.928 18.664C65.928 17.704 65.904 16.768 65.856 15.856C65.808 14.944 65.736 14.32 65.64 13.984C67.608 14.944 69 16.072 69.816 17.368C70.632 18.664 71.04 20.32 71.04 22.336C71.04 25.216 70.584 28.312 69.672 31.624C68.76 34.936 67.488 38.248 65.856 41.56C64.272 44.872 62.376 48.064 60.168 51.136C57.96 54.16 55.56 56.872 52.968 59.272C49.56 62.44 46.776 64.216 44.616 64.6C45.912 65.272 47.4 65.992 49.08 66.76C50.76 67.576 52.392 68.32 53.976 68.992C55.56 69.712 56.976 70.312 58.224 70.792C59.472 71.272 60.312 71.536 60.744 71.584C61.224 71.536 61.848 71.224 62.616 70.648C63.384 70.12 64.032 69.472 64.56 68.704C64.8 68.992 65.016 69.376 65.208 69.856C65.448 70.336 65.592 70.696 65.64 70.936C65.448 71.608 65.04 72.376 64.416 73.24C63.84 74.152 63.168 75.016 62.4 75.832C61.632 76.696 60.84 77.44 60.024 78.064C59.256 78.688 58.584 79.072 58.008 79.216C57.192 79.168 56.424 79.048 55.704 78.856C55.032 78.712 54.288 78.448 53.472 78.064C52.656 77.728 51.744 77.224 50.736 76.552C49.728 75.928 48.48 75.112 46.992 74.104C44.352 72.28 42.048 70.768 40.08 69.568C38.112 68.368 36.312 67.408 34.68 66.688C33.048 65.968 31.512 65.464 30.072 65.176C28.632 64.888 27.144 64.744 25.608 64.744C20.232 64.744 17.256 66.544 16.68 70.144C15.96 69.808 15.552 69.352 15.456 68.776C15.744 66.328 16.632 64.456 18.12 63.16C19.656 61.864 22.008 61.024 25.176 60.64C22.968 58.72 21.864 55.36 21.864 50.56C21.864 47.2 22.248 43.816 23.016 40.408C23.832 36.952 24.912 33.64 26.256 30.472C27.648 27.304 29.256 24.352 31.08 21.616C32.952 18.832 34.944 16.408 37.056 14.344C39.216 12.28 41.448 10.672 43.752 9.52C46.056 8.32 48.336 7.72 50.592 7.72C51.408 7.72 52.152 7.792 52.824 7.936C53.544 8.08 54.264 8.296 54.984 8.584ZM89.8258 59.416C88.9138 58.648 88.2898 57.688 87.9538 56.536C87.6658 55.384 87.5218 54.4 87.5218 53.584C87.5218 52.576 87.6418 51.712 87.8818 50.992C87.6898 50.992 87.2578 51.376 86.5858 52.144C85.9138 52.912 85.1698 53.824 84.3538 54.88C83.5858 55.936 82.8178 56.968 82.0498 57.976C81.2818 58.984 80.7058 59.728 80.3218 60.208C79.6978 60.88 79.0978 61.408 78.5218 61.792C77.9938 62.176 77.5618 62.392 77.2258 62.44C76.4578 62.392 75.6418 62.224 74.7778 61.936C73.9618 61.696 73.1698 61.336 72.4018 60.856C71.6818 60.376 71.0338 59.8 70.4578 59.128C69.9298 58.456 69.5698 57.688 69.3778 56.824C69.3778 55.48 69.4018 54.376 69.4498 53.512C69.5458 52.648 69.7138 51.712 69.9538 50.704C70.3858 48.88 71.0098 46.816 71.8258 44.512C72.6898 42.208 73.6738 39.952 74.7778 37.744C75.8818 35.488 77.1058 33.4 78.4498 31.48C79.8418 29.512 81.3058 27.976 82.8418 26.872C83.2738 26.872 83.7778 26.92 84.3538 27.016C84.9298 27.064 85.5058 27.184 86.0818 27.376C86.7058 27.568 87.2818 27.808 87.8098 28.096C88.3858 28.336 88.8658 28.672 89.2498 29.104C88.8178 29.584 87.7138 31.192 85.9378 33.928C84.2098 36.664 82.2658 40.6 80.1058 45.736C79.8658 46.264 79.5778 47.032 79.2418 48.04C78.9058 49.048 78.5698 50.104 78.2338 51.208C77.8978 52.312 77.6098 53.392 77.3698 54.448C77.1778 55.504 77.0818 56.344 77.0818 56.968C77.0818 57.352 77.1298 57.64 77.2258 57.832C77.3698 58.024 77.4898 58.168 77.5858 58.264C78.3058 57.976 79.2178 57.184 80.3218 55.888C81.4258 54.592 82.9618 52.6 84.9298 49.912C85.4098 49.24 85.9618 48.472 86.5858 47.608C87.2578 46.744 87.9298 45.832 88.6018 44.872C89.2738 43.864 89.8978 42.832 90.4738 41.776C91.0978 40.72 91.6018 39.664 91.9858 38.608C92.1778 38.032 92.4178 37.36 92.7058 36.592C93.0418 35.776 93.4258 34.936 93.8578 34.072C94.3378 33.208 94.8658 32.344 95.4418 31.48C96.0658 30.568 96.7858 29.728 97.6018 28.96C98.2258 28.96 98.8978 29.032 99.6178 29.176C100.338 29.32 101.01 29.512 101.634 29.752C102.306 29.944 102.882 30.184 103.362 30.472C103.842 30.712 104.202 30.976 104.442 31.264C103.578 33.376 102.618 35.464 101.562 37.528C100.506 39.592 99.5218 41.632 98.6098 43.648C97.6978 45.616 96.9298 47.584 96.3058 49.552C95.6818 51.52 95.3698 53.44 95.3698 55.312C95.3698 56.32 95.4418 57.208 95.5858 57.976C95.7778 58.696 95.9698 59.32 96.1618 59.848C96.3538 60.328 96.5218 60.736 96.6658 61.072C96.8578 61.408 96.9538 61.696 96.9538 61.936C96.9538 61.984 96.9058 62.056 96.8098 62.152C96.7618 62.2 96.7138 62.224 96.6658 62.224C96.3298 62.224 95.8978 62.152 95.3698 62.008C94.8418 61.864 94.2418 61.648 93.5698 61.36C92.9458 61.12 92.2978 60.832 91.6258 60.496C91.0018 60.16 90.4018 59.8 89.8258 59.416ZM112.163 61.504C114.371 60.016 116.531 58.12 118.643 55.816C120.755 53.464 122.675 50.944 124.403 48.256C126.131 45.52 127.595 42.688 128.795 39.76C129.995 36.832 130.811 34.024 131.243 31.336C131.243 30.76 130.931 30.376 130.307 30.184C129.635 30.184 128.699 30.784 127.499 31.984C126.347 33.136 125.051 34.624 123.611 36.448C122.219 38.272 120.779 40.312 119.291 42.568C117.851 44.824 116.531 47.08 115.331 49.336C114.131 51.544 113.099 53.632 112.235 55.6C111.419 57.52 110.963 59.08 110.867 60.28C110.387 60.28 109.979 59.8 109.643 58.84C109.547 58.6 109.379 58.36 109.139 58.12C108.899 57.832 108.515 57.496 107.987 57.112C107.747 56.92 107.507 56.704 107.267 56.464C107.027 56.176 106.859 55.936 106.763 55.744C106.571 55.36 106.475 54.736 106.475 53.872C106.475 51.04 106.835 47.848 107.555 44.296C108.275 40.744 109.211 37.12 110.363 33.424C111.563 29.728 112.955 26.104 114.539 22.552C116.123 18.952 117.755 15.664 119.435 12.688C121.163 9.712 122.891 7.192 124.619 5.128C126.347 3.064 127.979 1.696 129.515 1.024C129.995 1.168 130.571 1.408 131.243 1.744C131.915 2.08 132.587 2.464 133.259 2.896C133.931 3.328 134.555 3.76 135.131 4.192C135.755 4.624 136.211 5.008 136.499 5.344C131.219 9.616 126.635 15.112 122.747 21.832C118.907 28.504 115.763 36.4 113.315 45.52C114.659 43.024 116.171 40.624 117.851 38.32C119.531 35.968 121.187 33.904 122.819 32.128C124.499 30.352 126.083 28.936 127.571 27.88C129.107 26.824 130.379 26.296 131.387 26.296C132.155 26.488 132.899 26.824 133.619 27.304C134.339 27.784 134.987 28.384 135.563 29.104C136.139 29.776 136.619 30.52 137.003 31.336C137.387 32.104 137.627 32.92 137.723 33.784C137.675 35.8 137.315 37.96 136.643 40.264C136.019 42.52 135.155 44.752 134.051 46.96C132.995 49.168 131.771 51.28 130.379 53.296C129.035 55.312 127.595 57.088 126.059 58.624C124.571 60.112 123.059 61.312 121.523 62.224C120.035 63.136 118.619 63.592 117.275 63.592C116.699 63.592 116.099 63.52 115.475 63.376C114.899 63.28 114.347 63.112 113.819 62.872C113.339 62.68 112.931 62.464 112.595 62.224C112.307 61.984 112.163 61.744 112.163 61.504ZM139.572 56.176C139.572 55.744 139.596 55.216 139.644 54.592C139.74 53.92 139.884 53.056 140.076 52C140.268 50.896 140.508 49.576 140.796 48.04C141.132 46.504 141.54 44.656 142.02 42.496C142.116 42.016 142.332 41.248 142.668 40.192C143.004 39.136 143.436 38.032 143.964 36.88C144.54 35.68 145.212 34.528 145.98 33.424C146.796 32.32 147.756 31.504 148.86 30.976C149.676 31.168 150.756 31.672 152.1 32.488C153.444 33.256 154.596 34.336 155.556 35.728C154.452 36.976 153.516 38.224 152.748 39.472C152.028 40.72 151.356 42.016 150.732 43.36C150.156 44.704 149.604 46.096 149.076 47.536C148.596 48.976 148.044 50.488 147.42 52.072C146.892 53.416 146.412 54.808 145.98 56.248C145.548 57.64 145.308 58.864 145.26 59.92C145.26 60.784 145.236 61.384 145.188 61.72C145.188 62.104 145.068 62.296 144.828 62.296C144.636 62.296 144.252 62.176 143.676 61.936C143.1 61.696 142.5 61.336 141.876 60.856C141.3 60.328 140.772 59.68 140.292 58.912C139.812 58.144 139.572 57.232 139.572 56.176ZM153.324 24.928C153.324 24.64 153.396 24.208 153.54 23.632C153.3 23.392 153.084 23.032 152.892 22.552C152.748 22.072 152.676 21.64 152.676 21.256C152.676 20.824 152.724 20.248 152.82 19.528C152.964 18.76 153.132 17.944 153.324 17.08C153.516 16.216 153.756 15.328 154.044 14.416C154.332 13.456 154.62 12.592 154.908 11.824C155.484 11.824 156.18 11.992 156.996 12.328C157.86 12.616 158.724 13.024 159.588 13.552C160.452 14.032 161.244 14.584 161.964 15.208C162.684 15.784 163.236 16.336 163.62 16.864C163.092 17.392 162.396 18.136 161.532 19.096C160.668 20.008 159.828 20.992 159.012 22.048C158.196 23.056 157.452 24.016 156.78 24.928C156.108 25.84 155.676 26.488 155.484 26.872C154.908 26.776 154.404 26.536 153.972 26.152C153.54 25.72 153.324 25.312 153.324 24.928ZM160.271 33.424C160.031 33.136 159.815 32.536 159.623 31.624C159.431 30.664 159.335 29.848 159.335 29.176C160.583 29.272 161.783 29.368 162.935 29.464C164.087 29.512 165.143 29.56 166.103 29.608C166.823 28.168 167.591 26.752 168.407 25.36C169.271 23.92 170.087 22.624 170.855 21.472C171.671 20.272 172.415 19.264 173.087 18.448C173.807 17.632 174.359 17.104 174.743 16.864C175.223 16.864 175.823 16.96 176.543 17.152C177.311 17.296 178.079 17.512 178.847 17.8C179.615 18.04 180.311 18.304 180.935 18.592C181.559 18.88 181.991 19.168 182.231 19.456C180.791 21.28 179.543 22.984 178.487 24.568C177.479 26.104 176.375 27.88 175.175 29.896C176.135 29.896 177.095 29.872 178.055 29.824C179.063 29.776 180.071 29.704 181.079 29.608C181.319 29.848 181.511 30.16 181.655 30.544C181.799 30.88 181.871 31.24 181.871 31.624C179.519 32.488 176.663 32.968 173.303 33.064C172.103 35.368 171.023 37.672 170.063 39.976C169.151 42.232 168.359 44.416 167.687 46.528C167.063 48.64 166.559 50.632 166.175 52.504C165.839 54.376 165.671 56.056 165.671 57.544C165.671 59.656 166.463 60.832 168.047 61.072C169.487 60.88 170.855 60.52 172.151 59.992C173.447 59.464 174.599 58.792 175.607 57.976C175.895 58.408 176.063 58.768 176.111 59.056C175.823 59.488 175.319 59.992 174.599 60.568C173.927 61.144 173.183 61.696 172.367 62.224C171.551 62.8 170.759 63.28 169.991 63.664C169.223 64.048 168.647 64.264 168.263 64.312C167.063 64.264 165.863 64 164.663 63.52C163.463 63.04 162.359 62.44 161.351 61.72C160.391 61 159.599 60.208 158.975 59.344C158.351 58.432 158.039 57.544 158.039 56.68C158.039 55.528 158.183 54.088 158.471 52.36C158.807 50.584 159.263 48.664 159.839 46.6C160.415 44.536 161.087 42.376 161.855 40.12C162.623 37.864 163.463 35.632 164.375 33.424H160.271Z" fill="#833AB4"/>
</g>
<defs>
<clipPath id="clip0_1_2">
<rect width="200" height="83" fill="white"/>
</clipPath>
</defs>
</svg>
